<svg xmlns="http://www.w3.org/2000/svg" xmlns:xlink="http://www.w3.org/1999/xlink" width="500" zoomAndPan="magnify" viewBox="0 0 375 374.999991" height="500" preserveAspectRatio="xMidYMid meet" version="1.0"><defs><clipPath id="4b4ca18c92"><path d="M 148 106 L 227 106 L 227 187.539062 L 148 187.539062 Z M 148 106 " clip-rule="nonzero"/></clipPath><clipPath id="f67f398525"><path d="M 167.597656 96 L 207.347656 96 L 207.347656 137 L 167.597656 137 Z M 167.597656 96 " clip-rule="nonzero"/></clipPath></defs><path fill="#f4b5b0" d="M 231.46875 258.730469 C 202.121094 262.472656 172.773438 262.472656 143.425781 258.730469 C 141.875 258.53125 140.351562 258.207031 138.855469 257.757812 C 137.359375 257.304688 135.910156 256.734375 134.507812 256.046875 C 133.105469 255.355469 131.769531 254.554688 130.5 253.644531 C 129.230469 252.734375 128.046875 251.726562 126.941406 250.617188 C 125.839844 249.511719 124.835938 248.320312 123.929688 247.046875 C 123.023438 245.773438 122.226562 244.4375 121.542969 243.03125 C 120.855469 241.625 120.292969 240.175781 119.847656 238.675781 C 119.402344 237.179688 119.082031 235.652344 118.890625 234.101562 C 115.089844 203.765625 115.105469 173.429688 118.933594 143.09375 C 119.125 141.558594 119.4375 140.046875 119.878906 138.5625 C 120.316406 137.078125 120.875 135.640625 121.546875 134.246094 C 122.222656 132.851562 123.007812 131.523438 123.898438 130.257812 C 124.789062 128.992188 125.78125 127.808594 126.867188 126.707031 C 127.953125 125.601562 129.121094 124.59375 130.371094 123.683594 C 131.621094 122.773438 132.941406 121.96875 134.320312 121.273438 C 135.703125 120.578125 137.132812 119.996094 138.613281 119.535156 C 140.089844 119.074219 141.59375 118.738281 143.125 118.523438 C 172.042969 114.519531 201.59375 114.566406 231.777344 118.652344 C 233.316406 118.859375 234.828125 119.195312 236.3125 119.648438 C 237.800781 120.105469 239.238281 120.683594 240.628906 121.375 C 242.019531 122.066406 243.34375 122.871094 244.601562 123.78125 C 245.863281 124.691406 247.039062 125.699219 248.132812 126.804688 C 249.226562 127.90625 250.222656 129.09375 251.121094 130.363281 C 252.019531 131.628906 252.808594 132.960938 253.492188 134.359375 C 254.171875 135.757812 254.730469 137.203125 255.175781 138.691406 C 255.617188 140.183594 255.9375 141.699219 256.128906 143.238281 C 259.859375 173.160156 259.742188 203.421875 256.019531 234.011719 C 255.832031 235.566406 255.515625 237.097656 255.074219 238.601562 C 254.632812 240.101562 254.070312 241.558594 253.386719 242.96875 C 252.703125 244.378906 251.90625 245.722656 251 247.003906 C 250.097656 248.28125 249.089844 249.476562 247.988281 250.585938 C 246.882812 251.699219 245.695312 252.710938 244.421875 253.625 C 243.152344 254.539062 241.8125 255.34375 240.40625 256.039062 C 239.003906 256.730469 237.550781 257.300781 236.050781 257.753906 C 234.550781 258.207031 233.023438 258.53125 231.46875 258.730469 Z M 231.46875 258.730469 " fill-opacity="1" fill-rule="nonzero"/><g clip-path="url(#4b4ca18c92)"><path fill="#f4b5b0" d="M 211.613281 185.46875 C 195.492188 187.527344 179.375 187.527344 163.253906 185.46875 C 162.402344 185.359375 161.566406 185.179688 160.746094 184.933594 C 159.921875 184.683594 159.128906 184.371094 158.359375 183.992188 C 157.585938 183.613281 156.855469 183.171875 156.15625 182.671875 C 155.460938 182.167969 154.808594 181.613281 154.203125 181.003906 C 153.597656 180.394531 153.046875 179.742188 152.546875 179.042969 C 152.050781 178.339844 151.613281 177.605469 151.238281 176.832031 C 150.859375 176.058594 150.550781 175.261719 150.304688 174.4375 C 150.0625 173.613281 149.886719 172.773438 149.78125 171.921875 C 147.691406 155.234375 147.699219 138.546875 149.804688 121.863281 C 149.910156 121.019531 150.082031 120.1875 150.324219 119.371094 C 150.5625 118.554688 150.871094 117.761719 151.238281 116.996094 C 151.609375 116.230469 152.039062 115.496094 152.53125 114.800781 C 153.019531 114.105469 153.5625 113.453125 154.160156 112.847656 C 154.757812 112.242188 155.398438 111.6875 156.085938 111.1875 C 156.773438 110.683594 157.496094 110.242188 158.253906 109.859375 C 159.015625 109.476562 159.800781 109.160156 160.613281 108.90625 C 161.421875 108.652344 162.25 108.464844 163.089844 108.347656 C 178.972656 106.144531 195.203125 106.171875 211.78125 108.417969 C 212.625 108.535156 213.457031 108.714844 214.273438 108.96875 C 215.085938 109.21875 215.878906 109.535156 216.640625 109.917969 C 217.40625 110.296875 218.132812 110.738281 218.824219 111.238281 C 219.515625 111.742188 220.164062 112.292969 220.761719 112.902344 C 221.363281 113.507812 221.910156 114.160156 222.40625 114.859375 C 222.898438 115.558594 223.332031 116.289062 223.707031 117.058594 C 224.078125 117.828125 224.386719 118.621094 224.628906 119.441406 C 224.875 120.261719 225.050781 121.09375 225.15625 121.941406 C 227.203125 138.398438 227.136719 155.046875 225.09375 171.871094 C 224.992188 172.726562 224.816406 173.566406 224.574219 174.394531 C 224.332031 175.222656 224.023438 176.023438 223.648438 176.796875 C 223.273438 177.574219 222.835938 178.3125 222.339844 179.015625 C 221.839844 179.71875 221.289062 180.375 220.683594 180.988281 C 220.078125 181.597656 219.425781 182.15625 218.726562 182.660156 C 218.027344 183.164062 217.292969 183.605469 216.519531 183.984375 C 215.75 184.367188 214.949219 184.683594 214.128906 184.929688 C 213.304688 185.179688 212.464844 185.359375 211.613281 185.46875 Z M 211.613281 185.46875 " fill-opacity="1" fill-rule="nonzero"/></g><g clip-path="url(#f67f398525)"><path fill="#f4b5b0" d="M 199.554688 135.992188 C 191.496094 137.023438 183.4375 137.023438 175.378906 135.992188 C 174.519531 135.882812 173.703125 135.636719 172.929688 135.253906 C 172.152344 134.875 171.460938 134.375 170.851562 133.761719 C 170.242188 133.148438 169.746094 132.453125 169.367188 131.675781 C 168.988281 130.898438 168.746094 130.082031 168.640625 129.222656 C 167.597656 120.878906 167.601562 112.539062 168.652344 104.195312 C 168.757812 103.34375 168.996094 102.535156 169.371094 101.761719 C 169.742188 100.992188 170.230469 100.300781 170.832031 99.6875 C 171.429688 99.078125 172.113281 98.582031 172.878906 98.195312 C 173.640625 97.808594 174.449219 97.558594 175.296875 97.4375 C 183.234375 96.339844 191.351562 96.351562 199.640625 97.476562 C 200.492188 97.589844 201.300781 97.839844 202.070312 98.222656 C 202.839844 98.609375 203.527344 99.105469 204.132812 99.714844 C 204.734375 100.328125 205.226562 101.019531 205.601562 101.792969 C 205.980469 102.566406 206.21875 103.382812 206.328125 104.234375 C 207.351562 112.464844 207.320312 120.785156 206.296875 129.195312 C 206.191406 130.058594 205.953125 130.878906 205.574219 131.660156 C 205.195312 132.441406 204.703125 133.140625 204.089844 133.753906 C 203.480469 134.371094 202.785156 134.871094 202.011719 135.253906 C 201.234375 135.636719 200.414062 135.882812 199.554688 135.992188 Z M 199.554688 135.992188 " fill-opacity="1" fill-rule="nonzero"/></g><path fill="#bb9794" d="M 140.8125 183.261719 C 141.238281 177.214844 146.613281 177.414062 150.308594 180.683594 C 154.347656 184.253906 155.929688 191.59375 158.46875 196.265625 C 162.039062 202.832031 161.824219 202.707031 166.835938 197.105469 C 171.433594 191.976562 176.65625 187.234375 181.890625 182.769531 C 191.636719 174.457031 202.660156 167.347656 213.167969 160.042969 C 217.5 157.027344 223.949219 151.351562 229.476562 150.6875 C 235.289062 149.992188 235.296875 153.429688 232.089844 157.089844 C 228.183594 161.546875 222.191406 165.175781 217.667969 169.003906 C 212.257812 173.578125 206.914062 178.203125 201.71875 183.019531 C 191.96875 192.0625 181.746094 200.992188 173.652344 211.621094 C 167.03125 220.324219 161.609375 224.992188 153.640625 214.335938 C 148.125 206.960938 139.710938 192.867188 140.8125 183.261719 C 140.894531 182.109375 140.46875 186.246094 140.8125 183.261719 " fill-opacity="1" fill-rule="nonzero"/></svg>